{"title":"Come.Il.Vento.2013.iTALiAN.BRRip.XviD.BLUWORLD","uid":10592849,"size":1468574765,"categoryP":"video","categoryS":"movies","magnet":"?xt=urn:btih:8fe267b14b30b648df7c1c1eb16289e65fdcf15a&amp;dn=Come.Il.Vento.2013.iTALiAN.BRRip.XviD.BLUWORLD&amp;tr=udp%3A%2F%2Ftracker.openbittorrent.com%3A80&amp;tr=udp%3A%2F%2Fopen.demonii.com%3A1337&amp;tr=udp%3A%2F%2Ftracker.coppersurfer.tk%3A6969&amp;tr=udp%3A%2F%2Fexodus.desync.com%3A6969","seeders":6,"leechers":0,"uploader":"noriegaRJ","files":-1,"time":1405820642,"description":"Title: Come il Vento aka Like the Wind\n\n\nIMDB Link:                               &lt;a href=&quot;\nhttp://www.imdb.com/title/tt2418510/&quot; rel=&quot;nofollow&quot; target=&quot;_NEW&quot;&gt;\nhttp://www.imdb.com/title/tt2418510/&lt;/a&gt;\n\n\nPlot: Inspired by a true story LIKE THE WIND narrates 15 years of Armida Miserere's life, a woman who with determination and grit, but also personal suffering, was one of the first woman to become governor of prison. Armida Miserere, after suffering the loss of her loved one, found herself on the front line in the fight against crime, governing the most dangerous jail in Italy, while struggling to find the truth and to get justice. The film is conceived as long flashback that highlights the most important moments of her life in the attempt to unveil her mystery.\n\nDirected by Marco S. Puccioni, with Valeria Golino and Filippo Timi.\n\n\nSOFT SUBTITLE in ITALIAN. \n\n\n\nGeneral\nComplete name                            : Come.Il.Vento.2013.iTALiAN.BRRip.XviD.BLUWORLD\nFormat                                   : AVI\nFormat/Info                              : Audio Video Interleave\nFile size                                : 1.37 GiB\nDuration                                 : 1h 52mn\nOverall bit rate                         : 1 739 Kbps\nWriting application                      : VirtualDubMod 1.5.4.1 (build 2178/release)\nWriting library                          : VirtualDubMod build 2178/release\n\nVideo\nID                                       : 0\nFormat                                   : MPEG-4 Visual\nFormat profile                           : Advanced Simple@L5\nFormat settings, BVOP                    : No\nFormat settings, QPel                    : No\nFormat settings, GMC                     : No warppoints\nFormat settings, Matrix                  : Custom\nCodec ID                                 : XVID\nCodec ID/Hint                            : XviD\nDuration                                 : 1h 52mn\nBit rate                                 : 1 021 Kbps\nWidth                                    : 720 pixels\nHeight                                   : 304 pixels\nDisplay aspect ratio                     : 2.35:1\nFrame rate                               : 24.000 fps\nColor space                              : YUV\nChroma subsampling                       : 4:2:0\nBit depth                                : 8 bits\nScan type                                : Progressive\nCompression mode                         : Lossy\nBits/(Pixel*Frame)                       : 0.194\nStream size                              : 822 MiB (59%)\nWriting library                          : XviD 64\n\nAudio\nID                                       : 1\nFormat                                   : AC-3\nFormat/Info                              : Audio Coding 3\nMode extension                           : CM (complete main)\nFormat settings, Endianness              : Big\nCodec ID                                 : 2000\nDuration                                 : 1h 52mn\nBit rate mode                            : Constant\nBit rate                                 : 640 Kbps\nChannel count                            : 6 channels\nChannel positions                        : Front: L C R, Side: L R, LFE\nSampling rate                            : 48.0 KHz\nBit depth                                : 16 bits\nCompression mode                         : Lossy\nStream size                              : 515 MiB (37%)\nAlignment                                : Split accross interleaves\n\n\n\nThanks to those helping me seed. Leechers remember, the community depends on you. If nobody shares, the freebies go away. Remember, the only reason you can download this free movie is because others are generous enough to keep sharing it with you. If nobody shares, everybody loses, so even if its for an extra hour or two after you get it, remember, others want to see it too, and they can't without you.\n\n\nSEE MY OTHERS UPLOADS:                                                       &lt;a href=&quot;\nhttp://thepiratebay.se/user/noriegaRJ&quot; rel=&quot;nofollow&quot; target=&quot;_NEW&quot;&gt;\nhttp://thepiratebay.se/user/noriegaRJ&lt;/a&gt;\n\nAND SEE THIS ANOTHERS UPLOADS FROM &quot;HORiZON-ArtSubs&quot;:       &lt;a href=&quot;\nhttp://thepiratebay.se/user/artsubs&quot; rel=&quot;nofollow&quot; target=&quot;_NEW&quot;&gt;\nhttp://thepiratebay.se/user/artsubs&lt;/a&gt;       &lt;a href=&quot;\nhttp://thepiratebay.se/user/lletaif&quot; rel=&quot;nofollow&quot; target=&quot;_NEW&quot;&gt;\nhttp://thepiratebay.se/user/lletaif&lt;/a&gt;\t\t\t","torrent":{"xt":"urn:btih:8fe267b14b30b648df7c1c1eb16289e65fdcf15a","amp;dn":"Come.Il.Vento.2013.iTALiAN.BRRip.XviD.BLUWORLD","amp;tr":["udp%3A%2F%2Ftracker.openbittorrent.com%3A80","udp%3A%2F%2Fopen.demonii.com%3A1337","udp%3A%2F%2Ftracker.coppersurfer.tk%3A6969","udp%3A%2F%2Fexodus.desync.com%3A6969"],"infoHash":"8fe267b14b30b648df7c1c1eb16289e65fdcf15a","infoHashBuffer":{"type":"Buffer","data":[143,226,103,177,75,48,182,72,223,124,28,30,177,98,137,230,95,220,241,90]},"announce":[],"urlList":[]}}